<svg width="282" height="286" viewBox="0 0 282 286" fill="none" xmlns="http://www.w3.org/2000/svg">
<path d="M11.5 74.5932C9.9 73.7932 11.8333 81.2599 13 85.0932C10.3333 87.2599 5.1 91.8932 5.5 93.0932C5.9 94.2932 12.3333 92.5932 15.5 91.5932C17.5 93.5932 21.7 97.3932 22.5 96.5932C23.3 95.7932 22.8333 90.9266 22.5 88.5932C24.8333 87.2599 29.4 83.9932 29 81.5932C28.5 78.5932 18.5 83.0932 18 82.5932C17.5 82.0932 13.5 75.5932 11.5 74.5932Z" fill="#9BC9FD"/>
<path d="M9 206.593C6.2 206.593 7.83333 212.593 9 215.593C6.33333 216.26 1 218.093 1 220.093C1 222.093 6.33333 222.26 9 222.093C9.66667 223.76 11.6 227.293 14 228.093C16.4 228.893 16.3333 222.76 16 219.593C18.1667 218.927 22.6 216.993 23 214.593C23.4 212.193 17.1667 213.593 14 214.593C13.5 211.927 11.8 206.593 9 206.593Z" fill="#9BC9FD"/>
<path d="M29.0255 261.461C23.3924 258.074 21.2883 247.273 21.5803 242.593C20.5292 258.038 13.6971 264.093 4.5 266.726C19.8285 271.114 21.5803 277.695 21.5803 285.593C21.5803 271.552 31.6533 267.165 51.7993 266.726H64.5C51.3613 265.848 37.7847 266.726 29.0255 261.461Z" fill="#9BC9FD"/>
<path d="M248.735 261.545C254.488 258.183 256.664 247.411 256.38 242.74C257.407 258.155 264.354 264.218 273.723 266.872C258.083 271.205 256.278 277.768 256.255 285.649C256.296 271.638 246.04 267.229 225.503 266.732L212.555 266.694C225.952 265.857 239.79 266.773 248.735 261.545Z" fill="#9BC9FD"/>
<path d="M11 176.593C13 175.593 15.5 180.593 16.5 185.093C19 184.593 24.3 183.893 25.5 185.093C26.7 186.293 21.6667 189.593 19 191.093C19 193.927 18.5 199.493 16.5 199.093C14.5 198.693 13 194.927 12.5 193.093C9.33333 193.26 2.9 193.193 2.5 191.593C2.1 189.993 6.66667 187.593 9 186.593C9 183.593 9.4 177.393 11 176.593Z" fill="#9BC9FD"/>
<path d="M266.5 46.0932C264.5 45.6932 263 52.2599 262.5 55.5932C259.167 55.2599 252.6 55.2932 253 58.0932C253.4 60.8932 257.833 62.5932 260 63.0932C260 65.5932 260.5 70.7932 262.5 71.5932C264.5 72.3932 266.667 66.5932 267.5 63.5932C270.833 62.7599 277.2 60.6932 276 59.0932C274.8 57.4932 270.833 57.0932 269 57.0932C269 53.5932 268.5 46.4932 266.5 46.0932Z" fill="#9BC9FD"/>
<path d="M272.172 201.953C270.172 199.953 266.339 206.786 264.672 210.453C261.172 209.619 253.872 208.453 252.672 210.453C251.472 212.453 256.839 216.619 259.672 218.453C258.839 221.453 257.872 227.653 260.672 228.453C263.472 229.253 267.506 224.119 269.172 221.453C272.672 221.453 279.772 221.053 280.172 219.453C280.572 217.853 274.672 214.786 271.672 213.453C272.672 210.453 274.172 203.953 272.172 201.953Z" fill="#9BC9FD"/>
<path d="M264.5 1.09321C266.5 -0.106786 265.333 10.5932 264.5 16.0932C268 17.0932 275 19.4932 275 21.0932C275 22.6932 266.667 22.7599 262.5 22.5932C261.167 25.9265 257.9 32.5932 255.5 32.5932C253.1 32.5932 252.5 24.9265 252.5 21.0932C248.833 19.4265 241.9 15.4932 243.5 13.0932C245.1 10.6932 253.167 12.0932 257 13.0932C258.667 9.59321 262.5 2.29321 264.5 1.09321Z" fill="#9BC9FD"/>
<path d="M223.189 16.795C223.292 15.9716 223.449 15.2799 223.625 14.794C223.704 14.3947 223.85 14.0158 224.152 13.7836C224.536 13.4889 224.964 13.1407 225.44 13.1493C226.344 13.1658 227.539 13.2904 228.146 14.2035C228.441 14.6464 228.633 15.1925 228.513 15.803C228.38 16.4821 228.115 17.1813 227.533 17.6064C226.928 18.0489 226.28 18.4878 225.594 18.4461C224.856 18.4013 224.064 18.1933 223.525 17.7182C223.289 17.51 223.125 17.3013 223.189 16.795Z" fill="#9BC9FD"/>
<path d="M215.094 19.4057C215.022 19.3087 214.937 19.1331 214.974 19.0023C214.953 18.8573 215.011 18.6917 215.097 18.593C215.186 18.49 215.307 18.4418 215.438 18.4763C215.488 18.4897 215.54 18.5043 215.592 18.5206C215.826 18.5949 216.05 18.7044 216.087 18.8917C216.131 19.1132 216.134 19.3472 216.011 19.4678C215.951 19.5268 215.864 19.5638 215.759 19.5708C215.538 19.5854 215.245 19.6105 215.094 19.4057Z" fill="#9BC9FD"/>
<path d="M269.075 123.638C269.245 122.801 269.401 121.98 269.493 121.264C269.53 121.361 269.569 121.472 269.614 121.627C269.759 122.169 269.837 122.962 269.93 123.624C270.101 124.286 270.117 124.848 270.325 125.264C270.523 125.661 270.902 126.179 271.432 126.68C271.866 127.09 272.129 127.353 272.855 127.632C273.369 127.83 273.913 127.789 274.594 127.976C275.317 128.175 275.81 128.11 276.461 128.492C276.551 128.545 276.473 128.571 276.353 128.584C276.233 128.597 276.077 128.595 275.932 128.611C275.311 128.677 273.668 128.863 272.349 129.273C271.622 129.499 270.489 129.822 269.822 130.558C269.413 131.008 268.952 131.401 268.648 132.57C268.434 133.391 268.082 134.888 267.846 135.753C267.545 136.857 267.268 139.183 267.137 138.455C267.072 138.094 267.122 137.516 267.138 137.223C267.177 136.48 267.236 134.571 267.164 133.279C267.124 132.564 267.214 131.98 266.899 131.387C266.569 130.765 266.375 130.128 265.805 129.827C265.278 129.549 264.797 129.182 264.093 128.94C263.164 128.621 261.183 128.373 261.543 128.252C261.939 128.12 262.966 128.36 265.329 127.602C266.524 127.219 267.316 126.933 267.601 126.597C268.127 125.974 268.765 125.171 269.075 123.638Z" fill="#9BC9FD"/>
<path d="M269.339 128.889C269.216 129.41 269.084 129.762 268.965 129.658C268.903 129.785 268.841 129.912 268.781 130.035C268.586 130.556 268.408 130.984 268.286 131.077C268.158 131.359 268.084 131.543 268.106 131.555C268.739 131.914 269.68 129.646 270.235 128.463C270.374 128.166 270.264 127.731 270.181 127.303C270.152 127.151 270.261 127.121 270.398 127.12C271.349 127.118 272.294 127.617 272.446 127.673C272.771 127.791 271.557 127.673 271.02 127.577C270.772 127.532 270.593 127.37 270.456 127.328C270.402 127.311 270.373 127.423 270.387 127.52C270.416 127.735 270.619 127.948 270.852 128.155C270.94 128.234 271.042 128.29 271.144 128.329C271.349 128.304 271.424 128.282 271.5 128.295C271.583 128.31 271.664 128.364 271.621 128.392C271.492 128.409 271.316 128.394 271.144 128.329C271.042 128.29 270.94 128.234 270.852 128.155C270.619 127.948 270.416 127.735 270.387 127.52C270.373 127.423 270.402 127.311 270.456 127.328C270.593 127.37 270.772 127.532 271.02 127.577C271.557 127.673 272.771 127.791 272.446 127.673C272.294 127.617 271.349 127.118 270.398 127.12C270.261 127.121 270.152 127.151 270.181 127.303C270.264 127.731 270.374 128.166 270.235 128.463C269.68 129.646 268.739 131.914 268.106 131.555C268.084 131.543 268.158 131.359 268.286 131.077C268.248 131.106 268.215 131.102 268.189 131.058C268.149 130.99 266.759 130.884 266.837 128.899C266.608 128.924 266.451 128.916 266.514 128.833C266.556 128.778 266.998 128.582 267.717 127.859C268.573 126.997 269.329 126.259 269.631 126.067C269.715 126.013 269.764 126.002 269.769 126.044C269.782 126.153 269.652 127.267 269.474 128.233C269.535 128.101 269.592 127.99 269.646 127.906C270.256 126.952 269.875 127.781 269.339 128.889Z" fill="#9BC9FD"/>
<path d="M227.414 277.009C227.721 276.379 228.157 275.929 228.681 275.586C228.791 275.479 228.913 275.399 229.049 275.356C229.071 275.349 229.093 275.342 229.115 275.335C229.531 275.197 229.902 275.017 230.265 275.125C230.895 275.312 231.463 275.496 231.711 275.828C232.061 276.294 232.574 277.224 232.573 278.353C232.572 279.097 232.503 279.734 232.079 280.03C231.211 280.638 229.528 281.511 228.341 280.772C228.036 280.582 227.727 280.275 227.549 279.906C227.2 279.183 226.903 278.058 227.414 277.009Z" fill="#9BC9FD"/>
<path d="M48.2569 237.166C48.3593 236.892 48.4595 236.634 48.5561 236.395C48.7295 234.814 49.2385 233.325 50.2892 232.76C50.8952 232.435 51.5158 232.085 52.0399 232.203C53.0936 232.439 54.5941 232.886 55.238 234.098C55.7978 235.151 56.3109 236.642 55.7705 237.929C55.4671 238.651 55.0059 239.393 54.2727 239.819C53.5504 240.238 52.6501 240.608 51.6315 240.492C50.6066 240.375 49.5393 240.271 49.0429 239.6C48.5077 238.877 47.919 238.069 48.2569 237.166Z" fill="#9BC9FD"/>
<path d="M59.9739 243.949C59.9295 243.975 59.8758 243.984 59.8236 243.981C59.7583 244.045 59.6738 244.1 59.576 244.136C59.3875 244.206 59.1563 244.206 59.0169 244.11C58.8775 244.015 58.8312 243.83 58.8319 243.666C58.8326 243.502 58.8615 243.347 58.9735 243.246C59.2067 243.037 59.6463 242.735 59.9543 242.947C60.0937 243.043 60.1399 243.274 60.1392 243.485C60.1389 243.576 60.1301 243.662 60.1108 243.736C60.0853 243.833 60.0413 243.91 59.9739 243.949Z" fill="#9BC9FD"/>
<path d="M87.329 14.0818C87.4764 14.199 87.7125 15.0228 88.0512 17.6973C88.315 19.7811 88.5949 23.3598 88.7755 25.2595C88.9854 27.2763 89.0449 27.5141 89.0747 27.6331L89.0156 27.397M82.1805 21.272C82.1512 21.272 82.1219 21.272 84.0402 20.9937C85.9585 20.7154 89.8252 20.1589 91.8757 19.8722C93.9262 19.5854 94.0434 19.5854 94.1641 19.5854M223.942 14.1706C223.835 14.2996 223.727 14.5122 223.625 14.794M223.625 14.794C223.449 15.2799 223.292 15.9716 223.189 16.795C223.125 17.3013 223.289 17.51 223.525 17.7182C224.064 18.1933 224.856 18.4013 225.594 18.4461C226.28 18.4878 226.928 18.0489 227.533 17.6064C228.115 17.1813 228.38 16.4821 228.513 15.803C228.633 15.1925 228.441 14.6464 228.146 14.2035C227.539 13.2904 226.344 13.1658 225.44 13.1493C224.964 13.1407 224.536 13.4889 224.152 13.7836C223.85 14.0158 223.704 14.3947 223.625 14.794ZM223.625 14.794C223.595 14.9442 223.574 15.0973 223.558 15.2465C223.495 15.8212 223.822 16.2993 224.162 16.6388C224.535 17.0122 225.094 17.0706 225.61 16.9677C226.124 16.8654 226.486 16.5096 226.751 16.1998C227.01 15.8982 227.02 15.5039 226.932 15.1644C226.93 15.1595 226.929 15.1546 226.928 15.1498M226.928 15.1498C226.798 14.6849 226.29 14.3974 225.727 14.2194M226.928 15.1498C226.949 15.4493 226.888 15.8314 226.558 16.0813C226.189 16.3614 225.728 16.6224 225.27 16.5074C224.798 16.3889 224.331 16.1637 224.163 15.7507C224.001 15.3521 223.915 14.8869 224.151 14.5678C224.358 14.2878 224.622 13.982 224.951 14.0375C225.201 14.0795 225.469 14.138 225.727 14.2194M226.928 15.1498C226.925 15.1138 226.921 15.0791 226.916 15.0459C226.865 14.6857 226.577 14.4378 226.297 14.29C226.122 14.1979 225.924 14.1853 225.727 14.2194M225.727 14.2194C225.546 14.2507 225.365 14.3213 225.202 14.4058C224.823 14.6031 224.683 15.1151 224.609 15.5288C224.577 15.7059 224.622 15.8252 224.711 15.9149C224.905 16.1127 225.301 16.0942 225.685 16.0059C226.033 15.9259 226.249 15.6513 226.368 15.4298C226.419 15.3339 226.369 15.2376 226.296 15.163C226.132 14.9975 225.838 14.9695 225.557 14.9988C225.421 15.0131 225.306 15.0867 225.231 15.1755C225.156 15.2642 225.126 15.3814 225.185 15.4857C225.243 15.59 225.389 15.6779 225.523 15.7085C225.657 15.7391 225.774 15.7098 226.073 15.5909M215.598 18.5202C215.598 18.5202 215.594 18.5204 215.592 18.5206M215.592 18.5206C215.569 18.5232 215.527 18.5387 215.471 18.5686M215.592 18.5206C215.826 18.5949 216.05 18.7044 216.087 18.8917C216.131 19.1132 216.134 19.3472 216.011 19.4678C215.951 19.5268 215.864 19.5638 215.759 19.5708C215.538 19.5854 215.245 19.6105 215.094 19.4057C215.022 19.3087 214.937 19.1331 214.974 19.0023M215.592 18.5206C215.54 18.5043 215.488 18.4897 215.438 18.4763C215.307 18.4418 215.186 18.49 215.097 18.593C215.011 18.6917 214.953 18.8573 214.974 19.0023M215.471 18.5686C215.404 18.6047 215.316 18.6618 215.216 18.7429M215.471 18.5686C215.505 18.5662 215.539 18.5696 215.57 18.5801C215.659 18.6108 215.717 18.6986 215.746 18.8331C215.776 18.9676 215.776 19.1434 215.73 19.2614C215.685 19.3795 215.597 19.4381 215.508 19.4523C215.419 19.4665 215.331 19.4372 215.227 19.3622C215.122 19.2872 215.005 19.17 214.977 19.0209C214.976 19.0147 214.975 19.0085 214.974 19.0023M215.471 18.5686C215.405 18.5732 215.338 18.5991 215.289 18.6378C215.252 18.6669 215.226 18.703 215.216 18.7429M215.216 18.7429C215.156 18.7921 215.091 18.8501 215.023 18.9175C214.998 18.942 214.982 18.9709 214.974 19.0023M215.216 18.7429C215.206 18.7841 215.213 18.8293 215.243 18.8753M269.521 118.593C269.521 118.96 269.547 119.359 269.573 119.938C269.59 120.307 269.558 120.76 269.493 121.264M269.493 121.264C269.401 121.98 269.245 122.801 269.075 123.638C268.765 125.171 268.127 125.974 267.601 126.597C267.316 126.933 266.524 127.219 265.329 127.602C262.966 128.36 261.939 128.12 261.543 128.252C261.183 128.373 263.164 128.621 264.093 128.94C264.797 129.182 265.278 129.549 265.805 129.827C266.375 130.128 266.569 130.765 266.899 131.387C267.214 131.98 267.124 132.564 267.164 133.279C267.236 134.571 267.177 136.48 267.138 137.223C267.122 137.516 267.072 138.094 267.137 138.455C267.268 139.183 267.545 136.857 267.846 135.753C268.082 134.888 268.434 133.391 268.648 132.57C268.952 131.401 269.413 131.008 269.822 130.558C270.489 129.822 271.622 129.499 272.349 129.273C273.668 128.863 275.311 128.677 275.932 128.611C276.077 128.595 276.233 128.597 276.353 128.584C276.473 128.571 276.551 128.545 276.461 128.492C275.81 128.11 275.317 128.175 274.594 127.976C273.913 127.789 273.369 127.83 272.855 127.632C272.129 127.353 271.866 127.09 271.432 126.68C270.902 126.179 270.523 125.661 270.325 125.264C270.117 124.848 270.101 124.286 269.93 123.624C269.837 122.962 269.759 122.169 269.614 121.627C269.569 121.472 269.53 121.361 269.493 121.264ZM269.493 121.264C269.476 121.219 269.459 121.177 269.442 121.134M270.263 124.854C270.236 124.772 270.209 124.69 270.167 124.607C270.114 124.499 269.915 125.04 269.631 126.067M269.631 126.067C269.465 126.664 269.27 127.426 269.058 128.32C268.846 129.214 268.862 129.437 268.876 129.481C268.895 129.543 268.914 129.589 268.934 129.621M269.631 126.067C269.715 126.013 269.764 126.002 269.769 126.044C269.782 126.153 269.652 127.267 269.474 128.233M269.631 126.067C269.329 126.259 268.573 126.997 267.717 127.859C266.998 128.582 266.556 128.778 266.514 128.833C266.451 128.916 266.608 128.924 266.837 128.899M268.934 129.621C268.944 129.637 268.955 129.649 268.965 129.658M268.934 129.621C268.883 129.763 268.831 129.902 268.781 130.035M268.934 129.621C269.117 129.123 269.306 128.601 269.474 128.233M268.965 129.658C269.084 129.762 269.216 129.41 269.339 128.889M268.965 129.658C269.091 129.399 269.219 129.137 269.339 128.889M268.965 129.658C268.903 129.785 268.841 129.912 268.781 130.035M269.339 128.889C269.386 128.689 269.432 128.466 269.474 128.233M269.339 128.889C269.875 127.781 270.256 126.952 269.646 127.906C269.592 127.99 269.535 128.101 269.474 128.233M266.837 128.899C267.071 128.874 267.381 128.814 267.61 128.765C267.791 128.726 267.872 128.696 267.642 128.627C267.412 128.558 266.868 128.449 266.847 128.734C266.842 128.791 266.839 128.846 266.837 128.899ZM266.837 128.899C266.759 130.884 268.149 130.99 268.189 131.058C268.215 131.102 268.248 131.106 268.286 131.077M268.286 131.077C268.408 130.984 268.586 130.556 268.781 130.035M268.286 131.077C268.411 130.802 268.588 130.432 268.781 130.035M268.286 131.077C268.158 131.359 268.084 131.543 268.106 131.555C268.739 131.914 269.68 129.646 270.235 128.463C270.374 128.166 270.264 127.731 270.181 127.303C270.152 127.151 270.261 127.121 270.398 127.12C271.349 127.118 272.294 127.617 272.446 127.673C272.771 127.791 271.557 127.673 271.02 127.577C270.772 127.532 270.593 127.37 270.456 127.328C270.402 127.311 270.373 127.423 270.387 127.52C270.416 127.735 270.619 127.948 270.852 128.155C270.94 128.234 271.041 128.29 271.144 128.329M271.144 128.329C271.316 128.394 271.492 128.409 271.621 128.392C271.664 128.364 271.583 128.31 271.5 128.295C271.424 128.282 271.349 128.304 271.144 128.329ZM271.144 128.329C271.126 128.332 271.107 128.334 271.087 128.336M229.163 275.311C229.147 275.319 229.131 275.327 229.115 275.335M229.115 275.335C228.964 275.412 228.82 275.495 228.681 275.586M229.115 275.335C229.531 275.197 229.902 275.017 230.265 275.125C230.895 275.312 231.463 275.496 231.711 275.828C232.061 276.294 232.574 277.224 232.573 278.353C232.572 279.097 232.503 279.734 232.079 280.03C231.211 280.638 229.528 281.511 228.341 280.772C228.036 280.582 227.727 280.275 227.549 279.906C227.2 279.183 226.903 278.058 227.414 277.009C227.721 276.379 228.157 275.929 228.681 275.586M229.115 275.335C229.093 275.342 229.071 275.349 229.049 275.356C228.913 275.399 228.791 275.479 228.681 275.586M228.681 275.586C228.437 275.823 228.251 276.197 228.09 276.614C227.834 277.278 227.994 278.016 228.227 278.599C228.431 279.11 228.974 279.326 229.44 279.443C229.892 279.557 230.329 279.282 230.701 279.026C231.149 278.719 231.311 278.208 231.381 277.812C231.458 277.377 231.359 276.994 231.219 276.714C231.057 276.389 230.521 276.245 229.915 276.221C229.389 276.201 228.978 276.663 228.675 277.129C228.531 277.349 228.51 277.595 228.532 277.829C228.555 278.064 228.647 278.295 228.787 278.46C229.056 278.777 229.58 278.86 230.093 278.884C230.33 278.895 230.514 278.769 230.655 278.652C231.22 278.185 231.125 277.321 231.009 276.902C230.95 276.689 230.662 276.575 230.474 276.526C230.285 276.478 230.147 276.524 230.006 276.64C229.702 276.892 229.507 277.284 229.429 277.645M229.429 277.645C229.426 277.66 229.423 277.675 229.42 277.69C229.419 277.694 229.419 277.698 229.418 277.703M229.429 277.645C229.459 277.54 229.545 277.417 229.68 277.317C229.869 277.177 230.147 277.085 230.309 277.134C230.387 277.157 230.448 277.216 230.48 277.287M229.429 277.645C229.423 277.665 229.42 277.684 229.418 277.703M229.418 277.703C229.394 277.884 229.584 278.064 229.721 278.112C229.988 278.205 230.282 277.834 230.47 277.532C230.516 277.456 230.515 277.365 230.48 277.287M229.418 277.703C229.416 277.723 229.417 277.743 229.42 277.761C229.442 277.879 229.58 277.925 229.744 277.926C229.908 277.927 230.093 277.88 230.235 277.741C230.335 277.642 230.411 277.498 230.48 277.287M230.48 277.287C230.509 277.201 230.536 277.103 230.564 276.992M49.5375 234.398C49.385 234.55 49.0104 235.271 48.5561 236.395M48.5561 236.395C48.4595 236.634 48.3593 236.892 48.2569 237.166C47.919 238.069 48.5077 238.877 49.0429 239.6C49.5393 240.271 50.6066 240.375 51.6315 240.492C52.6501 240.608 53.5504 240.238 54.2727 239.819C55.0059 239.393 55.4671 238.651 55.7705 237.929C56.3109 236.642 55.7978 235.151 55.238 234.098C54.594 232.886 53.0936 232.439 52.0399 232.203C51.5158 232.085 50.8952 232.435 50.2892 232.76C49.2385 233.325 48.7295 234.814 48.5561 236.395ZM48.5561 236.395C48.5134 236.784 48.4911 237.179 48.486 237.566C48.474 238.476 49.0219 239.112 49.4871 239.555C50.0387 240.08 50.9345 240.142 51.773 240.096C52.6217 240.049 53.364 239.677 53.9469 239.304C54.4354 238.992 54.6741 238.51 54.8142 238.021C55.1295 236.92 54.5368 235.757 53.977 234.845C53.6756 234.353 53.0894 234.119 52.6004 233.885C52.1009 233.647 51.5019 233.743 50.9429 233.883C49.6602 234.203 48.7949 236.071 48.5098 237.591C48.4443 237.941 48.694 238.268 48.9042 238.527C49.3196 239.039 50.0475 239.161 50.8161 239.115C51.641 239.066 52.4295 238.604 53.0593 238.068C53.5402 237.659 53.6933 237.016 53.8103 236.387C53.9169 235.814 53.6484 235.287 53.3927 234.845C53.113 234.36 52.4365 234.165 51.8074 234.094C51.2066 234.027 50.6612 234.583 50.1484 235.048C49.575 235.568 49.4913 236.449 49.4675 237.125C49.4567 237.432 49.5824 237.662 49.7456 237.851C50.0811 238.238 50.7019 238.321 51.331 238.251C51.6945 238.211 51.9963 237.999 52.2498 237.722M52.2498 237.722C52.4252 237.53 52.5775 237.306 52.7111 237.087C52.8529 236.854 52.9237 236.613 52.9413 236.378M52.2498 237.722C51.6715 237.951 51.0591 238.1 50.5856 237.993C50.3754 237.945 50.2367 237.853 50.1435 237.687C50.0503 237.522 49.9749 237.287 50.0286 237.009C50.1456 236.403 50.3932 235.698 50.9898 235.446C51.5958 235.191 52.133 235.099 52.4589 235.287C52.6228 235.381 52.7884 235.509 52.8547 235.708C52.9241 235.917 52.9588 236.145 52.9413 236.378M52.2498 237.722C52.255 237.72 52.2603 237.718 52.2655 237.715C52.7767 237.511 52.9465 237.015 52.9934 236.665C53.0076 236.56 52.9845 236.464 52.9413 236.378M52.9413 236.378C52.9176 236.331 52.8878 236.286 52.8547 236.244C52.6605 235.999 52.2487 235.893 51.806 235.846C51.5956 235.823 51.4094 235.891 51.2448 236.007C50.8956 236.254 50.7523 236.638 50.7285 236.918C50.7164 237.06 50.8434 237.197 50.9835 237.269C51.28 237.42 51.6841 237.294 52.0105 237.085C52.0146 237.082 52.0186 237.08 52.0225 237.077M52.0225 237.077C52.1944 236.954 52.2435 236.64 52.1997 236.433C52.1548 236.22 51.9699 236.082 51.7821 236.057C51.5944 236.031 51.4094 236.124 51.2679 236.241C51.1264 236.358 51.0339 236.496 51.0325 236.66C51.0311 236.824 51.1236 237.009 51.2868 237.081C51.4302 237.145 51.6259 237.117 52.0225 237.077ZM52.0225 237.077C52.0775 237.071 52.1365 237.066 52.1997 237.06M60.1861 243.785C60.161 243.768 60.1358 243.752 60.1108 243.736M60.1108 243.736C60.0633 243.705 60.0162 243.677 59.9705 243.656M60.1108 243.736C60.0853 243.833 60.0413 243.91 59.9739 243.949C59.9295 243.975 59.8758 243.984 59.8236 243.981M60.1108 243.736C60.1301 243.662 60.1389 243.575 60.1392 243.485C60.1399 243.274 60.0937 243.043 59.9543 242.947C59.6463 242.735 59.2068 243.037 58.9735 243.246C58.8615 243.347 58.8326 243.502 58.8319 243.666C58.8312 243.83 58.8775 244.015 59.0169 244.11C59.1563 244.206 59.3875 244.206 59.576 244.136C59.6738 244.1 59.7583 244.045 59.8236 243.981M59.9705 243.656C59.9074 243.627 59.8469 243.612 59.791 243.622C59.6733 243.644 59.5809 243.782 59.6257 243.877C59.6537 243.936 59.7366 243.976 59.8236 243.981M59.9705 243.656C59.9725 243.699 59.9666 243.743 59.9515 243.787C59.9282 243.855 59.8841 243.922 59.8236 243.981M59.9705 243.656C59.9662 243.562 59.9243 243.471 59.8604 243.39C59.7672 243.272 59.6285 243.18 59.5339 243.202C59.4393 243.223 59.3931 243.362 59.4856 243.505M13 85.0932C11.8333 81.2599 9.9 73.7932 11.5 74.5932C13.5 75.5932 17.5 82.0932 18 82.5932C18.5 83.0932 28.5 78.5932 29 81.5932C29.4 83.9932 24.8333 87.2599 22.5 88.5932C22.8333 90.9265 23.3 95.7932 22.5 96.5932C21.7 97.3932 17.5 93.5932 15.5 91.5932C12.3333 92.5932 5.9 94.2932 5.5 93.0932C5.1 91.8932 10.3333 87.2599 13 85.0932ZM9 215.593C7.83333 212.593 6.2 206.593 9 206.593C11.8 206.593 13.5 211.927 14 214.593C17.1667 213.593 23.4 212.193 23 214.593C22.6 216.993 18.1667 218.927 16 219.593C16.3333 222.76 16.4 228.893 14 228.093C11.6 227.293 9.66667 223.76 9 222.093C6.33333 222.26 1 222.093 1 220.093C1 218.093 6.33333 216.26 9 215.593ZM21.5803 242.593C21.2883 247.273 23.3924 258.074 29.0255 261.461C37.7847 266.726 51.3613 265.848 64.5 266.726H51.7993C31.6533 267.165 21.5803 271.552 21.5803 285.593C21.5803 277.695 19.8285 271.114 4.5 266.726C13.6971 264.093 20.5292 258.038 21.5803 242.593ZM256.38 242.74C256.664 247.411 254.488 258.183 248.735 261.545C239.79 266.773 225.952 265.857 212.555 266.694L225.503 266.732C246.04 267.229 256.296 271.638 256.255 285.649C256.278 277.768 258.083 271.205 273.723 266.872C264.354 264.218 257.407 258.155 256.38 242.74ZM16.5 185.093C15.5 180.593 13 175.593 11 176.593C9.4 177.393 9 183.593 9 186.593C6.66667 187.593 2.1 189.993 2.5 191.593C2.9 193.193 9.33333 193.26 12.5 193.093C13 194.927 14.5 198.693 16.5 199.093C18.5 199.493 19 193.927 19 191.093C21.6667 189.593 26.7 186.293 25.5 185.093C24.3 183.893 19 184.593 16.5 185.093ZM262.5 55.5932C263 52.2599 264.5 45.6932 266.5 46.0932C268.5 46.4932 269 53.5932 269 57.0932C270.833 57.0932 274.8 57.4932 276 59.0932C277.2 60.6932 270.833 62.7599 267.5 63.5932C266.667 66.5932 264.5 72.3932 262.5 71.5932C260.5 70.7932 260 65.5932 260 63.0932C257.833 62.5932 253.4 60.8932 253 58.0932C252.6 55.2932 259.167 55.2599 262.5 55.5932ZM264.672 210.453C266.339 206.786 270.172 199.953 272.172 201.953C274.172 203.953 272.672 210.453 271.672 213.453C274.672 214.786 280.572 217.853 280.172 219.453C279.772 221.053 272.672 221.453 269.172 221.453C267.506 224.119 263.472 229.253 260.672 228.453C257.872 227.653 258.839 221.453 259.672 218.453C256.839 216.619 251.472 212.453 252.672 210.453C253.872 208.453 261.172 209.619 264.672 210.453ZM264.5 16.0932C265.333 10.5932 266.5 -0.106786 264.5 1.09321C262.5 2.29321 258.667 9.59321 257 13.0932C253.167 12.0932 245.1 10.6932 243.5 13.0932C241.9 15.4932 248.833 19.4265 252.5 21.0932C252.5 24.9265 253.1 32.5932 255.5 32.5932C257.9 32.5932 261.167 25.9265 262.5 22.5932C266.667 22.7599 275 22.6932 275 21.0932C275 19.4932 268 17.0932 264.5 16.0932Z" stroke="#5B61B2" stroke-width="2" stroke-linecap="round"/>
</svg>
