<svg width="40" height="40" viewBox="0 0 40 40" fill="none" xmlns="http://www.w3.org/2000/svg">
<circle cx="20" cy="20" r="18" fill="#9BC9FD" stroke="white" stroke-width="4"/>
<path d="M20.6934 16.2L22.8934 13.16C22.8934 13.16 22.9868 13.0533 23.1734 12.84C23.3868 12.6267 23.7468 12.4133 24.2534 12.2C24.7868 11.9867 25.5068 11.8933 26.4134 11.92C27.3468 11.92 28.0534 12.1067 28.5334 12.48C29.0401 12.8267 29.3334 13.2267 29.4134 13.68C29.4934 14.1333 29.3334 14.5467 28.9334 14.92C28.6401 15.1867 28.2401 15.5867 27.7334 16.12C27.2534 16.6533 26.7468 17.2133 26.2134 17.8C25.7068 18.36 25.2668 18.84 24.8934 19.24C24.5468 19.64 24.3734 19.84 24.3734 19.84L28.2934 25.04C28.2934 25.04 28.3601 25.1333 28.4934 25.32C28.6268 25.5067 28.7334 25.7467 28.8134 26.04C28.8934 26.3333 28.8801 26.6267 28.7734 26.92C28.6934 27.1867 28.4268 27.4267 27.9734 27.64C27.5468 27.8533 26.8668 27.9733 25.9334 28C25.0001 28.0267 24.2801 27.8933 23.7734 27.6C23.2934 27.3067 22.9601 27.0133 22.7734 26.72C22.5868 26.4267 22.4934 26.28 22.4934 26.28L20.8134 23.36L18.6134 26.88C18.6134 26.88 18.5468 26.9733 18.4134 27.16C18.2801 27.3467 17.9868 27.5333 17.5334 27.72C17.1068 27.9067 16.4001 28 15.4134 28C13.9468 28 13.0668 27.6933 12.7734 27.08C12.4801 26.44 12.6934 25.6667 13.4134 24.76C13.8934 24.1467 14.4001 23.4667 14.9334 22.72C15.4934 21.9733 15.9601 21.3333 16.3334 20.8C16.7334 20.24 16.9334 19.96 16.9334 19.96L12.1334 14.8C12.1334 14.8 12.0668 14.7067 11.9334 14.52C11.8268 14.3333 11.7468 14.0933 11.6934 13.8C11.6668 13.5067 11.7868 13.2133 12.0534 12.92C12.3468 12.6 12.8934 12.3333 13.6934 12.12C14.7601 11.8267 15.6001 11.7733 16.2134 11.96C16.8534 12.1467 17.3068 12.3867 17.5734 12.68C17.8401 12.9467 17.9734 13.08 17.9734 13.08L20.6934 16.2Z" fill="#5B61B2"/>
</svg>
