<svg width="80" height="80" viewBox="0 0 80 80" fill="none" xmlns="http://www.w3.org/2000/svg">
<mask id="path-1-inside-1_39_164" fill="white">
<circle cx="39.6147" cy="39.6147" r="29" transform="rotate(-120 39.6147 39.6147)"/>
</mask>
<circle cx="39.6147" cy="39.6147" r="29" transform="rotate(-120 39.6147 39.6147)" fill="#9BC9FD"/>
<path d="M24.4585 13.3633C24.896 14.1211 25.3335 14.8789 25.771 15.6367C28.3609 14.3087 31.1239 13.3959 33.944 12.9309C45.2889 10.9466 57.0806 16.8606 62.172 26.5913C69.0409 38.6358 64.2511 55.1986 52.3647 61.6984C52.3647 61.6984 52.3647 61.6984 52.3647 61.6984C40.7926 68.7424 24.0539 64.6091 17.0575 52.6382C11.1761 43.3636 11.9503 30.1947 19.3413 21.3618C21.1539 19.152 23.326 17.2156 25.771 15.6367C25.3335 14.8789 24.896 14.1211 24.4585 13.3633C21.6345 14.8239 19.0251 16.743 16.7732 19.0487C7.58005 28.1986 5.26516 43.8373 11.9425 55.5913C19.7427 70.7513 41.0572 76.8143 55.8647 67.7606C71.1093 59.4637 76.5158 37.9733 67.287 23.6382C60.4464 11.9784 45.7454 6.16381 33.2248 9.55035C30.102 10.3477 27.1354 11.648 24.4585 13.3633ZM25.771 15.6367L24.4585 13.3633L25.771 15.6367Z" fill="#5B61B2" mask="url(#path-1-inside-1_39_164)"/>
<path d="M55.7311 15.9412C56.0037 16.3604 56.2762 16.7796 56.5487 17.1988C58.2926 16.1682 60.0899 15.2038 61.908 14.3238C63.4512 13.5812 65.0221 12.8888 66.5936 12.3665C67.3712 12.1107 68.1767 11.8906 68.8958 11.8024C69.2579 11.7574 69.6042 11.7525 69.8354 11.797C70.0859 11.8439 70.07 11.915 70.008 11.8526C70.1795 16.846 65.0809 24.7452 60.7714 29.7343C55.6989 35.3102 50.6725 40.7434 45.1819 45.7161C39.7613 50.5962 33.9616 55.2156 27.4874 58.0548C23.8655 59.6034 20.2362 61.093 16.5533 62.3342C14.7104 62.9481 12.8691 63.5011 11.0367 63.8413C9.30137 64.2064 7.11708 64.1589 6.83467 63.5484C6.75877 63.5599 6.69718 62.9161 6.87689 62.3056C7.0361 61.6829 7.31054 61.0193 7.62912 60.3711C8.27304 59.0704 9.09231 57.807 9.99128 56.6111C11.1869 55.0475 12.5453 53.4805 14.0801 52.4628C13.8331 52.0281 13.5861 51.5933 13.3391 51.1586C11.3581 52.262 9.87908 53.7803 8.46037 55.3633C7.40652 56.5722 6.43557 57.8528 5.60287 59.2819C5.18973 60.0005 4.8084 60.7516 4.52516 61.61C4.28951 62.4716 3.90003 63.4903 4.61081 64.8904C5.49916 66.3813 7.07558 66.7161 8.18669 66.8427C9.3566 66.9597 10.4298 66.874 11.4825 66.743C13.5841 66.4653 15.5489 65.9719 17.5075 65.4175C21.4084 64.2951 25.1586 62.9141 28.8843 61.4498C36.1654 58.4956 42.2556 53.7192 47.8695 48.6786C53.5245 43.5595 58.6411 37.8529 63.4888 32.1939C66.1064 29.1366 68.052 25.8648 69.7992 22.4203C70.6562 20.694 71.4388 18.9204 72.0531 17.0389C72.5097 15.104 73.6328 13.3178 72.2227 10.3677C71.6731 9.56176 70.7711 9.28834 70.1678 9.23053C69.534 9.1666 69.0055 9.23531 68.5001 9.32671C67.5164 9.51594 66.6289 9.83283 65.784 10.1724C64.0926 10.8633 62.5202 11.6966 60.984 12.5784C59.1778 13.622 57.429 14.742 55.7311 15.9412Z" fill="#5B61B2"/>
</svg>
